<?xml version="1.0" encoding="UTF-8" standalone="no"?>
<!-- Created with Inkscape (http://www.inkscape.org/) -->

<svg
   xmlns:dc="http://purl.org/dc/elements/1.1/"
   xmlns:cc="http://creativecommons.org/ns#"
   xmlns:rdf="http://www.w3.org/1999/02/22-rdf-syntax-ns#"
   xmlns:svg="http://www.w3.org/2000/svg"
   xmlns="http://www.w3.org/2000/svg"
   xmlns:sodipodi="http://sodipodi.sourceforge.net/DTD/sodipodi-0.dtd"
   xmlns:inkscape="http://www.inkscape.org/namespaces/inkscape"
   width="137.20866mm"
   height="145.12302mm"
   viewBox="0 0 486.17243 514.21541"
   id="svg2"
   version="1.1"
   inkscape:version="0.91 r"
   sodipodi:docname="SBTCVMLOGO-singlevector.svg">
  <defs
     id="defs4" />
  <sodipodi:namedview
     id="base"
     pagecolor="#ffffff"
     bordercolor="#666666"
     borderopacity="1.0"
     inkscape:pageopacity="0.0"
     inkscape:pageshadow="2"
     inkscape:zoom="1.4"
     inkscape:cx="200.16655"
     inkscape:cy="394.08568"
     inkscape:document-units="px"
     inkscape:current-layer="layer1"
     showgrid="false"
     fit-margin-left="0.8"
     fit-margin-top="0.8"
     fit-margin-right="0.8"
     fit-margin-bottom="0.8"
     inkscape:window-width="1368"
     inkscape:window-height="719"
     inkscape:window-x="0"
     inkscape:window-y="27"
     inkscape:window-maximized="1" />
  <metadata
     id="metadata7">
    <rdf:RDF>
      <cc:Work
         rdf:about="">
        <dc:format>image/svg+xml</dc:format>
        <dc:type
           rdf:resource="http://purl.org/dc/dcmitype/StillImage" />
        <dc:title></dc:title>
      </cc:Work>
    </rdf:RDF>
  </metadata>
  <g
     inkscape:label="Layer 1"
     inkscape:groupmode="layer"
     id="layer1"
     transform="translate(-111.53019,-120.39419)">
    <path
       style="fill:#000000"
       d="M 334.26338,630.81828 C 229.24557,623.28881 145.22504,559.94946 121.60676,470.50587 c -3.53658,-13.39322 -4.47593,-18.86677 -5.79199,-33.75 -1.46309,-16.54597 -1.46508,-18.98575 -0.029,-35.57671 1.30808,-15.11205 2.17417,-20.16779 5.71284,-33.34826 2.29403,-8.54466 4.17099,-17.0255 4.17099,-18.8463 0,-3.40928 -9.87703,-109.95557 -10.79262,-116.42299 l -0.51214,-3.61756 63.54301,0.25791 63.543,0.25791 9.56785,-3.67161 9.56787,-3.6716 42.31965,-44.53125 c 23.2758,-24.49218 44.49415,-46.74195 47.15187,-49.44391 l 4.83222,-4.91266 47.23925,49.59855 47.23925,49.59856 10.52006,3.82973 10.52005,3.82973 60.13034,0 60.13034,0 -1.2e-4,3.04688 c -7e-5,1.67578 -2.09836,27.64025 -4.66288,57.69881 -4.20117,49.24162 -4.53116,54.99576 -3.33337,58.125 0.73117,1.91019 3.21042,10.64494 5.50946,19.41056 3.46472,13.21008 4.43458,18.87405 5.66723,33.09699 1.36268,15.72332 1.36055,18.62649 -0.0256,34.6875 -1.29956,15.05802 -2.1461,19.90598 -6.0074,34.40301 -20.83792,78.23473 -87.21965,136.94757 -175.27232,155.02364 -17.31081,3.55369 -23.43559,4.24573 -54.375,6.14375 -3.35156,0.20561 -14.10938,-0.20086 -23.90625,-0.90327 z m -46.71973,-82.98504 c 21.16361,-2.35989 38.88433,-10.38118 52.07485,-23.5717 5.26411,-5.26411 14.80113,-18.61257 14.80113,-20.71636 0,-0.54293 1.58203,1.61999 3.51562,4.80651 8.66654,14.28222 18.31653,23.46547 32.18491,30.62821 12.62639,6.52128 22.88627,8.97716 40.08457,9.59497 l 14.37885,0.51652 -0.31635,-2.2182 c -0.30647,-2.14894 -0.55054,-2.20949 -7.81635,-1.93913 -4.125,0.15349 -11.71875,-0.36286 -16.875,-1.14744 -26.6738,-4.05872 -45.18759,-16.04827 -57.95743,-37.53329 l -3.91757,-6.59124 -0.24483,-24.39771 -0.24484,-24.39772 13.13547,-14.98548 c 7.22449,-8.24202 13.13545,-15.30842 13.13545,-15.70313 0,-0.3947 -13.07813,-0.71764 -29.0625,-0.71764 -15.98438,0 -29.0625,0.25588 -29.0625,0.5686 0,0.31273 6.11719,7.51834 13.59375,16.01249 l 13.59375,15.44388 0,23.61649 0,23.6165 -4.34802,7.4804 c -2.83367,4.87506 -7.18071,10.29423 -12.48119,15.55945 -6.90933,6.86336 -9.60548,8.80493 -17.91761,12.903 -13.25175,6.5334 -21.69728,8.58909 -37.90943,9.22737 -12.1156,0.477 -14.46668,1.00237 -14.5169,3.24393 -0.037,1.65386 10.60737,1.99027 22.17217,0.70072 z m -64.70869,-139.8572 c -3.10794,-7.4189 -3.87899,-12.17977 -3.83381,-23.67188 0.0396,-10.07678 0.39758,-13.13571 2.06692,-17.66259 1.80828,-4.90361 1.85208,-5.41512 0.41967,-4.90059 -7.99482,2.87175 -56.41,22.68576 -56.42438,23.09179 -0.0174,0.49216 55.76231,23.98849 57.48127,24.21307 0.42969,0.0562 0.56033,-0.42527 0.29033,-1.0698 z m 46.46781,-11.30021 c 15.31854,-6.27984 27.55292,-11.69808 27.1875,-12.04054 -0.78215,-0.73302 -56.41736,-23.29988 -57.44234,-23.29988 -0.38399,0 0.2014,2.21485 1.30087,4.92188 1.72217,4.24021 1.99902,6.80457 1.99902,18.51562 0,11.88926 -0.26189,14.24029 -2.08861,18.75 -1.14875,2.83594 -2.08885,5.30685 -2.08911,5.49093 -6.2e-4,0.43856 -0.98884,0.8302 31.13267,-12.33801 z m 200.19078,6.79121 c -1.81513,-4.47438 -2.06908,-6.82633 -2.06908,-19.16288 0,-12.06968 0.27548,-14.73858 1.9439,-18.8334 l 1.94389,-4.7709 -29.36631,11.74154 c -16.15146,6.45784 -29.12872,11.97975 -28.83835,12.2709 0.6239,0.62558 57.93269,24.2598 58.24291,24.01945 0.11667,-0.0904 -0.71896,-2.45951 -1.85696,-5.26471 z m 60.70733,-12.34402 c 7.73437,-3.14351 14.35351,-5.96374 14.70918,-6.26717 0.35567,-0.30343 -12.61699,-5.90279 -28.82813,-12.44303 -16.21113,-6.54023 -29.4748,-11.79906 -29.4748,-11.68626 0,0.1128 0.92027,2.72172 2.04504,5.7976 2.99289,8.18453 3.00631,27.40121 0.025,35.7973 -1.13854,3.20639 -2.07007,6.02648 -2.07007,6.26686 0,0.24038 6.64453,-2.30499 14.76562,-5.65638 8.1211,-3.35138 21.09375,-8.66539 28.82813,-11.80892 z M 345.74579,353.77954 c -1.80252,-4.44807 -2.06613,-6.83893 -2.0612,-18.69413 0.006,-13.28622 0.21305,-14.57137 3.66571,-22.70281 0.48621,-1.1451 -7.83052,1.82853 -28.84222,10.3125 -16.23899,6.55686 -29.32212,12.1325 -29.07362,12.39031 0.58913,0.61123 57.88807,24.24166 58.16605,23.98804 0.11667,-0.10645 -0.71796,-2.48871 -1.85472,-5.29391 z m 46.64259,-6.50663 c 12.375,-5.09007 24.16322,-9.95414 26.19604,-10.80904 l 3.69603,-1.55438 -29.47728,-11.96352 c -16.21251,-6.57995 -29.57742,-11.88945 -29.6998,-11.79891 -0.12238,0.0906 0.70574,2.66606 1.84028,5.72336 1.75625,4.73274 2.05865,7.43942 2.03497,18.21499 -0.0236,10.76745 -0.33319,13.42576 -2.07417,17.8125 -1.1255,2.83594 -2.04659,5.47832 -2.04685,5.87196 -2.5e-4,0.39364 1.58156,0.0502 3.51515,-0.76328 1.9336,-0.81345 13.64063,-5.6436 26.01563,-10.73368 z m -196.1411,-55.78125 48.30636,-51.5625 -59.59126,-0.24136 c -32.7752,-0.13275 -59.80154,-0.0311 -60.05854,0.2259 -0.4237,0.4237 8.53151,103.3462 9.80884,112.73346 l 0.53993,3.968 6.34416,-6.7805 c 3.48928,-3.72927 28.08202,-29.98362 54.65051,-58.343 z m -36.82765,3.28125 0,-12.1875 -12.65625,0 -12.65625,0 0,-6.5625 0,-6.5625 12.65625,0 12.65625,0 0,-12.65625 0,-12.65625 4.21875,0 4.21875,0 0,12.65625 0,12.65625 12.65625,0 12.65625,0 0,6.5625 0,6.5625 -12.65625,0 -12.65625,0 0,12.1875 0,12.1875 -4.21875,0 -4.21875,0 z m 415.7259,0.66105 c 2.1885,-30.52764 3.72907,-55.76847 3.42348,-56.09074 -0.57857,-0.61013 -115.56721,-2.83997 -116.15473,-2.25246 -0.18392,0.18393 24.05219,26.34863 53.85801,58.14378 29.80584,31.79515 54.35031,57.33571 54.54328,56.75679 0.19298,-0.57891 2.14146,-26.02973 4.32996,-56.55737 z m -83.8509,-39.09855 0,-7.5 39.375,0 39.375,0 0,7.5 0,7.5 -39.375,0 -39.375,0 z m -58.87224,-36.32812 c -34.03984,-36.52003 -76.81993,-81.32813 -77.64721,-81.32813 -0.73222,0 -56.96559,59.06798 -84.56537,88.82813 l -2.39097,2.57812 86.99861,0 86.99862,0 z m -86.90901,2.69905 c -4.84495,-2.21304 -11.28629,-9.26223 -14.12055,-15.45307 -6.60242,-14.42158 -3.99942,-35.5756 5.70585,-46.3702 12.30365,-13.68461 31.19002,-10.49852 40.00874,6.7494 4.27988,8.37071 5.80003,22.39507 3.50606,32.34545 -2.43957,10.58196 -10.98045,21.41828 -18.53508,23.51657 -5.2443,1.4566 -12.39555,1.11636 -16.56502,-0.78815 z m 18.9936,-11.9583 c 1.94333,-1.53815 4.76014,-5.26465 6.3189,-8.3596 2.50301,-4.96979 2.8125,-6.51273 2.8125,-14.02178 0,-7.38481 -0.33443,-9.11856 -2.68047,-13.89638 -10.43036,-21.2418 -35.28828,-11.49687 -35.28828,13.83388 0,7.91642 2.09409,14.35446 6.24727,19.20652 4.45071,5.19965 7.92065,6.75415 14.15258,6.34022 3.73786,-0.24827 5.77958,-0.99911 8.4375,-3.10286 z"
       id="path4396"
       inkscape:connector-curvature="0"
       sodipodi:nodetypes="csssssscccccsscccccccsssssssssccsssssscsssscccssssscccsssscsssssccsssssssssssscsscscsssssssccscssccssscscsssccsscssscsscccccccccccccccccccccccccsccscscccccccccssscccssssssssssssssss" />
  </g>
</svg>
